# xmcd
#
# Track frame offsets: 
#        150
#        23848
#        32232
#        43030
#        53372
#        70518
#        78834
#        87911
#        98690
#        111721
#        124232
#        135780
#        154586
#        173097
#        190405
#        214144
#        228317
#        241833
#
# Disc length: 3593 seconds
#
# Revision: 0
# Processed by: cddbd v1.5.2PL0 Copyright (c) Steve Scherf et al.
# Submitted via: ExactAudioCopy v0.95b4
#
DISCID=e00e0712
DTITLE=Krüger Brothers - Carolina Scrapbook Vol.2 [CD2]
DYEAR=2005
DGENRE=Bluegrass
TTITLE0=Leaving Nancy
TTITLE1=Fred McBride (Coal Creek March)
TTITLE2=June Apple
TTITLE3=Nobody's Darling but Mine
TTITLE4=Willie Moore
TTITLE5=Clint's Cattle Story (Home Sweet Home)
TTITLE6=Peg and Awl
TTITLE7=Lonesome Midnight Waltz
TTITLE8=Don't This Road Look Rough and Rocky
TTITLE9=Jazzing
TTITLE10=Walt's Waltz
TTITLE11=Four on the Floor
TTITLE12=In the Pines
TTITLE13=Abe's Tune
TTITLE14=Kennesaw Line
TTITLE15=Somebody Robbed the Glendale Train
TTITLE16=Mississippi Sawyer
TTITLE17=This Land Won't Never Be for Sale
EXTD=
EXTT0=
EXTT1=
EXTT2=
EXTT3=
EXTT4=
EXTT5=
EXTT6=
EXTT7=
EXTT8=
EXTT9=
EXTT10=
EXTT11=
EXTT12=
EXTT13=
EXTT14=
EXTT15=
EXTT16=
EXTT17=
PLAYORDER=
